<?xml version="1.0" encoding="utf-8"?>
<!-- Generator: Adobe Illustrator 24.1.1, SVG Export Plug-In . SVG Version: 6.00 Build 0)  -->
<svg version="1.1" id="Layer_1" xmlns="http://www.w3.org/2000/svg" xmlns:xlink="http://www.w3.org/1999/xlink" x="0px" y="0px"
	 viewBox="0 0 512 512" style="enable-background:new 0 0 512 512;" xml:space="preserve">
<g>
	<path d="M505.1,115.8c-1.6-5.4-5.9-9.6-11.3-11c-5.5-1.5-11.3,0.1-15.3,4l-83.7,81.8l-61.3-12.3l-12.2-61L406,34.7
		c4-3.9,5.7-9.7,4.4-15.2S405,9.6,399.6,7.9C382.7,2.6,367.1,0,352,0c-88.2,0-160,71.8-160,160c0,10.3,1.2,20.8,3.8,32.3
		c-18,14.8-35.1,27.6-54.4,42.1c-27.7,20.7-59,44.1-101.8,80.2C14.4,336.5,0,367.6,0,400c0,61.8,50.2,112,112,112
		c32.7,0,63.8-14.6,85.2-40c36.8-43.1,60.5-74.8,81.4-102.7c14.1-18.9,26.6-35.5,41-53.1c11.5,2.6,22,3.8,32.4,3.8
		c88.2,0,160-71.8,160-160C512,146,509.8,132,505.1,115.8z M112,432c-17.7,0-32-14.3-32-32s14.3-32,32-32s32,14.3,32,32
		S129.7,432,112,432z"/>
</g>
</svg>
